<svg width="231" height="229" viewBox="0 0 231 229" fill="none" xmlns="http://www.w3.org/2000/svg">
<g filter="url(#filter0_d_2008_44)">
<ellipse cx="115.421" cy="110.11" rx="111.421" ry="110.11" fill="#66A3F4"/>
</g>
<g clip-path="url(#clip0_2008_44)">
<path d="M120.55 104.004C119.532 101.003 101.419 100.156 100.49 103.08C99.9029 104.928 104.636 110.424 109.285 110.943C116.231 111.714 121.157 105.804 120.55 104.004Z" fill="white"/>
<path d="M118 95.9933C119.178 96.2585 120.397 96.5357 121.298 96.833C121.459 96.8853 121.624 96.9134 121.784 96.9134C122.432 96.9134 123.031 96.5036 123.248 95.8608C123.518 95.0532 123.079 94.1814 122.271 93.9122C121.225 93.5627 119.93 93.2735 118.68 92.9882C117.739 92.7753 116.468 92.49 115.627 92.2208C116.142 91.803 116.902 91.2727 117.562 90.8107C118.817 89.9348 120.381 88.8421 122.014 87.452C122.661 86.9016 122.742 85.9253 122.187 85.2785C121.636 84.6316 120.658 84.5513 120.011 85.1057C118.487 86.4034 116.995 87.4439 115.792 88.2836C113.295 90.0272 111.489 91.2888 112.141 93.2413C112.659 94.7881 114.783 95.2702 118 95.9974V95.9933Z" fill="white"/>
<path d="M181.449 179.197C180.999 177.671 180.058 176.321 178.968 175.18L174.287 169.965C169.798 164.963 164.631 159.367 159.933 154.598C158.554 153.196 157.118 151.882 155.473 150.797C161.47 146.956 166.71 142.135 170.51 136.057C184.007 115.201 180.09 89.292 167.007 69.2603C157.874 55.251 143.453 44.504 127.101 40.5708C118.845 38.6022 110.194 38.5018 101.861 40.1409C75.9783 45.4321 54.5954 67.2274 49.5604 93.1046C47.1595 104.382 47.3445 116.427 51.3862 127.33C54.1048 134.839 58.8744 141.464 64.5167 147.061C73.7906 156.518 86.6999 162.432 99.7943 163.509C103.953 163.922 108.115 163.922 112.104 163.83C116.194 163.786 120.365 163.356 124.394 162.589C128.513 161.729 132.739 160.648 136.918 159.298C138.036 163.633 139.705 167.743 141.289 171.913C144.008 179.069 146.984 186.116 150.354 192.982C151.371 194.906 153.073 196.453 155.067 197.305C157.915 198.554 161.047 199.161 164.196 198.956C166.939 198.767 169.666 197.931 172.059 196.589C174.371 195.288 176.51 193.608 178.3 191.648C181.401 188.261 182.889 183.693 181.453 179.197H181.449ZM66.8372 138.748C57.861 129.094 54.3018 115.989 55.3877 102.932C56.2041 92.269 59.6104 81.5822 65.9364 72.8601C74.8925 60.6547 88.6222 50.9603 103.434 47.6257C123.92 42.9251 144.965 52.5472 157.806 68.5733C164.224 76.6808 168.833 86.2908 170.981 96.4111C173.092 106.391 172.4 117.029 168.218 126.386C164.385 134.871 158.063 142.131 150.33 147.274C150.314 146.386 150.282 145.494 150.225 144.602C149.658 135.976 146.505 126.663 138.937 121.718C136.017 119.801 132.711 118.769 129.321 118.287C131.372 117.696 133.298 116.688 134.947 115.374C142.391 109.569 145.962 99.5287 144.032 90.2642C141.028 74.7684 125.444 65.0579 110.162 66.5726C101.278 67.6091 92.9857 72.5346 87.7737 79.7823C86.9131 80.9354 86.3782 82.213 85.8473 83.4986C83.7722 88.7898 82.6461 94.5389 83.5671 100.22C85.0913 108.608 89.2979 115.599 96.2673 119.07C88.1799 123.96 82.9075 132.553 80.5227 141.83C79.9436 144.208 79.3524 146.607 79.0347 149.029C74.4662 146.273 70.344 142.778 66.8372 138.748ZM104.781 115.631C104.886 115.595 104.978 115.571 105.047 115.567C105.026 115.571 104.918 115.599 104.781 115.631ZM112.028 156.418C104.343 156.462 96.9389 156.04 89.6558 153.778C87.3957 153.095 85.1999 152.235 83.0805 151.219C83.2775 150.472 83.4585 149.724 83.6435 148.981C86.0283 139.934 90.2229 130.617 98.3184 125.478C100.599 124.048 103.12 123.044 105.75 122.461L106.414 122.324L106.498 122.308C107.472 122.112 108.368 121.537 108.939 120.709C110.657 118.287 109.04 114.743 106.044 114.494C98.0771 113.735 93.597 108.753 91.4334 101.489C89.881 96.3508 89.5231 90.6378 91.1679 85.4592C91.4615 84.6075 91.7672 83.7236 92.2859 83.0165C94.8557 79.3484 98.6481 76.6808 102.835 75.1461C106.233 73.9247 109.832 73.1614 113.452 73.3422C128.255 73.985 140.308 87.1104 136.222 102.048C135.337 105.423 133.725 108.741 131.308 111.356C130.093 112.646 128.786 113.863 127.262 114.816C125.456 115.836 123.996 116.35 121.969 116.656V116.708C121.535 116.748 121.181 116.933 120.904 117.174C119.999 117.953 119.54 119.287 120.208 120.396C120.839 121.437 122.002 121.489 122.022 121.549C125.014 122.361 128.135 123.072 130.865 124.349C134.058 125.8 136.761 127.808 139.077 130.396C141.333 132.967 142.974 136.225 144.112 139.749C145.142 142.915 145.781 146.293 146.236 149.736C142.632 151.669 138.788 153.163 134.794 154.136C127.35 155.976 119.689 156.438 112.04 156.418H112.028ZM174.214 188.156C173.148 189.466 171.677 190.655 170.197 191.539C166.183 193.906 161.614 193.665 157.621 191.342C157.07 190.997 156.636 190.479 156.366 189.896L155.743 188.438C154.818 186.292 153.845 184.171 152.863 182.05C150.897 177.815 148.782 173.645 146.582 169.515C144.535 165.674 142.584 161.813 140.143 158.197C144.35 156.683 148.464 154.867 152.333 152.689C153.724 155.694 156.125 158.366 158.204 160.865C160.388 163.472 162.817 166.301 165.057 168.84C167.651 171.761 172.36 177 174.974 179.896C175.288 180.25 175.537 180.652 175.674 181.102C176.547 183.568 175.972 185.947 174.214 188.16V188.156Z" fill="white"/>
<path d="M102.959 94.4466C105.774 94.0448 107.898 92.5985 106.663 89.2036C106.032 87.468 102.071 87.231 101.109 87.9702C97.0958 91.0517 100.8 94.7519 102.959 94.4426V94.4466Z" fill="white"/>
</g>
<defs>
<filter id="filter0_d_2008_44" x="0" y="0" width="230.842" height="228.221" filterUnits="userSpaceOnUse" color-interpolation-filters="sRGB">
<feFlood flood-opacity="0" result="BackgroundImageFix"/>
<feColorMatrix in="SourceAlpha" type="matrix" values="0 0 0 0 0 0 0 0 0 0 0 0 0 0 0 0 0 0 127 0" result="hardAlpha"/>
<feOffset dy="4"/>
<feGaussianBlur stdDeviation="2"/>
<feComposite in2="hardAlpha" operator="out"/>
<feColorMatrix type="matrix" values="0 0 0 0 0 0 0 0 0 0 0 0 0 0 0 0 0 0 0.25 0"/>
<feBlend mode="normal" in2="BackgroundImageFix" result="effect1_dropShadow_2008_44"/>
<feBlend mode="normal" in="SourceGraphic" in2="effect1_dropShadow_2008_44" result="shape"/>
</filter>
<clipPath id="clip0_2008_44">
<rect width="134" height="160" fill="white" transform="translate(48 39)"/>
</clipPath>
</defs>
</svg>
