<svg width="236" height="236" viewBox="0 0 236 236" fill="none" xmlns="http://www.w3.org/2000/svg">
<g filter="url(#filter0_d_2008_27)">
<circle cx="117.955" cy="113.955" r="113.955" fill="#8D9438"/>
</g>
<g clip-path="url(#clip0_2008_27)">
<path d="M181.889 90.2803C180.726 87.2593 178.893 84.5592 176.002 83.143C174.719 82.493 173.295 82.2844 171.904 82.0878C169.943 81.799 167.873 81.7067 165.928 81.6947C162.047 81.3376 146.928 80.467 137.95 79.9414C140.46 74.8582 141.286 68.8241 140.143 63.1913C138.487 55.1191 133.117 48.383 126.573 44.1824C116.407 40.4673 105.507 41.1252 97.2263 49.0209C93.2483 53.2856 89.9559 58.3287 88.7248 64.3267C87.4937 70.0598 88.4722 76.2985 91.3795 81.3255C84.4139 80.9725 77.3921 80.7197 70.4545 80.4991C68.7582 80.4429 66.4443 80.3426 64.752 80.487C60.2005 80.7759 54.5622 82.9063 52.7216 88.0136C51.6709 90.7658 51.8914 93.7026 52.5732 96.3465C54.0609 101.57 59.3143 103.913 63.8056 105.093C67.2905 105.919 70.7432 105.654 74.2401 105.707C74.4045 105.711 74.617 105.707 74.7774 105.69L75.4151 105.654C80.4518 105.45 85.8936 105.57 90.7098 106.633C92.0452 106.934 93.6613 107.432 94.6919 108.154C94.8964 108.302 95.0368 108.443 95.0969 108.515C95.113 108.539 95.109 108.531 95.137 108.575C95.6463 109.394 95.9511 110.252 96.2479 111.275C97.102 114.364 97.2865 118.011 96.9978 121.329C96.8374 122.669 96.6609 124.142 96.0353 125.237C96.0233 125.253 96.0233 125.257 96.0233 125.261C95.8629 125.369 95.5862 125.454 95.2654 125.538C92.9435 126.027 90.4411 125.811 87.9428 125.694C85.8976 125.55 83.6038 125.506 81.6268 126.28C79.5937 127.062 77.5806 128.025 75.796 129.482C73.1012 131.656 71.2766 135.102 70.7312 138.665C70.5868 139.512 70.5267 140.386 70.4866 141.237C70.0856 150.998 69.8209 160.739 69.8329 170.492C69.6845 174.248 72.1027 178.825 76.6422 180.266C83.0384 182.232 87.1368 180.258 90.3088 174.236C90.4812 173.919 90.7058 173.477 90.8702 173.152C92.0733 167.255 94.1586 160.892 96.0113 155.167L96.4804 153.698L96.713 152.964L96.7692 152.787C96.9897 152.29 97.3306 151.841 97.7677 151.552C98.3251 151.183 98.9266 151.09 99.5482 151.171C101.97 151.351 104.397 151.411 106.827 151.367C112.449 151.215 118.649 151.564 124.295 151.925L125.751 152.009C126.877 152.041 128.257 152.045 129.175 152.844C138.09 159.869 147.373 166.709 156.252 173.762C156.456 173.931 156.741 174.087 156.97 174.224C160.142 175.965 163.783 176.916 167.38 175.897C174.851 173.742 176.997 164.767 174.105 157.863L173.792 157.092L173.151 156.446C166.193 149.321 155.67 139.488 148.424 132.511C146.351 130.529 144.302 128.523 142.252 126.517C141.892 126.172 140.705 124.984 140.348 124.631C138.443 122.729 137.131 120.174 136.706 117.434C136.534 116.234 136.329 114.393 136.169 113.169C136.169 113.169 135.146 104.431 135.142 104.383C135.158 104.379 135.166 104.375 135.183 104.371C136.261 104.07 137.873 104.206 139.06 104.214L142.353 104.274C150.818 104.427 162.776 104.687 171.15 104.728C174.835 104.74 178.312 103.745 180.938 100.615C183.497 97.4297 183.485 93.8069 181.881 90.2884L181.889 90.2803ZM95.5421 66.0278C96.5847 61.8513 98.9547 57.2655 101.766 54.3849C107.244 49.5103 116.475 49.4943 123.104 51.416C123.104 51.416 123.268 51.4682 123.429 51.5203C126.565 53.4742 129.408 56.2786 131.409 59.4762C137.003 68.1902 133.907 80.2222 125.598 85.6585C123.998 86.7538 122.258 87.6725 120.437 88.2743C115.938 88.7197 111.19 88.2623 106.919 86.7819C102.784 85.3616 99.0149 82.6736 96.9496 78.6696C94.9606 74.8341 94.4593 70.2564 95.5421 66.0278ZM165.997 161.887L165.993 161.879C165.965 161.814 165.993 161.871 165.997 161.887ZM135.062 103.977C135.026 103.817 134.99 103.656 134.99 103.656L135.038 103.817C135.038 103.817 135.054 103.865 135.054 103.885C135.062 103.917 135.062 103.945 135.062 103.977ZM174.839 95.1068C174.302 95.8009 172.798 96.186 171.851 96.2302C163.169 96.2302 151.107 96.5672 142.361 96.6835C141.222 96.7196 138.547 96.7317 137.424 96.7758C134.008 96.6955 129.576 98.0356 128.558 102.116C128.261 103.283 128.249 104.383 128.514 105.514C128.895 108.411 129.809 115.343 130.118 117.947C130.667 122.16 132.48 126.18 135.247 129.265C137.97 132.162 140.757 135.086 143.439 138.015C150.036 145.201 159.384 155.512 166.253 162.585C166.751 163.953 167.192 165.437 166.963 166.833C166.534 168.262 165.275 169.024 163.699 169.092C162.516 169.132 161.156 168.707 160.07 168.097C160.07 168.097 160.046 168.085 160.021 168.069C151.56 161.393 143.155 154.28 134.721 147.548C133.795 146.802 132.744 145.923 131.678 145.421C129.925 144.503 127.88 144.282 125.951 144.346C125.013 144.346 119.711 144.354 118.669 144.358C114.783 144.366 110.901 144.234 107.023 143.929C105.082 143.793 103.145 143.7 101.2 143.708C99.9693 143.716 98.7061 143.66 97.499 143.985C94.1425 144.804 91.4156 147.833 90.8622 151.415C90.6136 153.08 89.8276 158.051 89.5709 159.833C88.9213 163.76 88.2035 167.672 87.225 171.519C86.062 173.056 83.9928 173.574 82.2684 173.554C80.8448 173.626 78.9801 173.373 77.9294 172.398C77.4723 171.977 77.2798 171.343 77.2477 170.721V170.693L77.2437 170.801C77.3359 163.171 77.2036 155.5 77.3359 147.885C77.376 145.562 77.4161 143.247 77.5084 140.936C77.6247 138.485 78.6352 136.334 80.0749 134.392C80.917 133.281 82.0399 132.27 83.3873 131.845C84.3898 131.528 85.4164 131.199 86.4671 131.115C88.6646 131.143 90.8702 131.44 93.2162 131.359C95.5381 131.307 98.6058 131.022 100.222 128.836C102.708 125.309 102.865 120.005 102.696 115.825C102.367 111.556 101.565 105.795 97.9401 103.147C94.3871 100.752 90.3248 100.266 86.3387 99.7286C82.3526 99.2913 78.4147 99.1108 74.4165 99.1108H74.3684C74.3123 99.1108 74.4967 99.1108 74.4647 99.1108C74.5368 99.1108 74.4887 99.1108 74.4647 99.1108L74.1679 99.0787C71.3127 98.7778 68.4053 97.7106 65.7065 96.9363C64.2989 96.519 62.8312 96.1098 61.588 95.4237C60.8141 94.9784 60.3008 94.6695 59.9358 94.0556C59.5629 92.6113 59.23 91.0908 60.2326 89.9754C62.747 87.5843 67.1301 87.7648 70.4465 87.6284C78.7836 87.3757 87.2531 87.0427 95.5942 86.5692C98.4414 89.1209 101.91 90.8942 105.431 91.9253C110.64 93.4418 115.958 93.827 121.303 93.3696C125.269 92.2141 128.967 90.2362 132.135 87.4559C134.561 87.5281 158.257 88.2342 158.257 88.2342C159.211 88.2222 165.523 88.3947 166.301 88.3385C168.467 88.1781 170.66 88.2784 172.806 88.6515C173.038 88.6956 173.255 88.7839 173.484 88.8882C174.582 89.4699 175.733 90.7698 175.745 92.1861C175.717 93.2532 175.208 94.4288 174.831 95.1148L174.839 95.1068Z" fill="white"/>
</g>
<defs>
<filter id="filter0_d_2008_27" x="0" y="0" width="235.909" height="235.909" filterUnits="userSpaceOnUse" color-interpolation-filters="sRGB">
<feFlood flood-opacity="0" result="BackgroundImageFix"/>
<feColorMatrix in="SourceAlpha" type="matrix" values="0 0 0 0 0 0 0 0 0 0 0 0 0 0 0 0 0 0 127 0" result="hardAlpha"/>
<feOffset dy="4"/>
<feGaussianBlur stdDeviation="2"/>
<feComposite in2="hardAlpha" operator="out"/>
<feColorMatrix type="matrix" values="0 0 0 0 0 0 0 0 0 0 0 0 0 0 0 0 0 0 0.25 0"/>
<feBlend mode="normal" in2="BackgroundImageFix" result="effect1_dropShadow_2008_27"/>
<feBlend mode="normal" in="SourceGraphic" in2="effect1_dropShadow_2008_27" result="shape"/>
</filter>
<clipPath id="clip0_2008_27">
<rect width="131" height="139" fill="white" transform="translate(52 42)"/>
</clipPath>
</defs>
</svg>
