<svg width="234" height="234" viewBox="0 0 234 234" fill="none" xmlns="http://www.w3.org/2000/svg">
<g filter="url(#filter0_d_18_93)">
<g clip-path="url(#clip0_18_93)">
<circle cx="116.974" cy="112.974" r="112.974" fill="#E3A52D"/>
<g clip-path="url(#clip1_18_93)">
<path d="M189.534 126.691C186.135 121.546 179.636 119.695 174.087 118.658C170.333 118.027 166.606 117.783 162.841 117.887C161.773 117.922 157.44 118.15 156.474 118.201C150.878 118.464 145.275 118.634 139.675 118.859C129.895 119.2 120.072 120.028 110.323 120.899C97.7663 122.088 85.1902 123.365 72.6923 125.185C70.5024 125.537 70.694 128.696 72.9113 128.789C85.5421 129.107 98.1652 128.874 110.765 128.561C120.537 128.263 130.38 127.922 140.117 127.09C145.697 126.644 151.277 126.149 156.861 125.742C157.601 125.696 161.448 125.425 162.098 125.382C165.641 125.212 169.285 125.39 172.742 126.044C179.124 127.078 189.342 131.573 178.451 135.94C177.431 136.319 176.332 136.625 175.252 136.838C162.211 137.705 149.154 138.53 136.093 139.107C116.415 139.912 96.6479 139.54 77.0134 140.76C72.1761 140.946 67.4718 140.915 62.7088 140.578C60.5776 140.369 58.1375 140.14 56.0688 139.649C54.4733 139.312 52.2522 138.623 51.1846 137.767C50.3908 137.225 49.9919 136.188 49.9411 135.076C50.7388 134.225 52.3852 133.702 53.922 133.249C56.8314 132.452 59.9949 132.153 63.0177 131.933C65.6612 131.58 66.8031 128.065 64.7853 126.265C64.5233 125.959 63.7568 125.576 63.5535 125.526C62.7518 125.247 61.9463 124.972 61.1446 124.697C61.3323 119.169 61.5044 113.636 61.6178 108.108C61.9815 95.8082 61.9971 79.4048 62.5915 67.3104C62.6071 66.8691 62.6814 66.1645 62.9004 65.8586C63.7881 64.6623 66.5137 64.643 68.117 64.8211L68.3986 64.8559L69.0555 64.9372L69.4622 64.9178L89.8163 63.9306C109.247 62.9008 125.323 62.2156 144.657 59.8772C144.841 59.9043 150.675 59.5636 154.206 60.5818C156.693 61.2129 158.926 63.8919 158.844 69.8114C159.614 81.569 154.981 101.793 158.57 112.514C159.454 115.015 162.845 117.903 165.668 116.106C169.144 113.896 166.446 108.917 166.157 106.598C165.187 100.071 166.102 60.4657 165.203 57.1478C163.869 52.2233 157.671 52.9008 157.037 52.866C152.138 52.6763 140.054 52.7576 135.139 52.7073C132.167 52.715 129.164 52.746 126.133 52.7963C126.422 52.3511 126.606 51.8284 126.626 51.2593C126.704 47.8486 126.473 44.4494 126.164 41.058C126.164 40.7909 126.164 40.7096 126.156 40.5509C125.996 35.2934 122.168 31.2052 116.756 31.0465C108.477 30.5006 104.899 37.8447 104.305 44.794C104.133 47.6279 103.558 50.4696 105.118 53.0441C105.188 53.1641 105.267 53.2802 105.353 53.3886C93.2379 53.8571 81.0724 54.5114 69.384 55.1463C61.7468 54.2481 53.7069 57.5582 53.0773 66.0251C52.827 70.6592 52.9483 75.3243 52.9795 79.9197C53.2024 95.3514 53.6913 111.066 54.5711 126.462C48.764 127.43 42.7966 129.664 43.0039 135.479C42.9922 137.856 43.7156 140.28 45.1468 142.215C45.5223 142.626 45.9563 143.222 46.3708 143.59C46.6876 143.876 47.3836 144.441 47.7082 144.72C49.9372 146.315 52.5885 147.357 55.2359 148.003C59.1346 149.006 63.1703 149.405 66.9947 149.618C67.5735 149.649 68.1561 149.668 68.7349 149.695C67.2606 153.686 65.8294 157.693 64.4373 161.712C62.3608 167.686 60.343 173.799 58.376 179.815C56.4677 186.207 58.8296 194.275 66.8187 193.996C71.1672 193.524 73.8967 190.883 76.6849 188.181C77.1189 187.693 77.6938 187.151 78.0887 186.617L78.3468 186.292L78.5815 185.727C80.7166 180.702 82.7539 175.181 84.6975 169.707C100.914 170.578 117.158 170.787 133.399 170.504C138.936 170.353 144.473 170.148 150.006 169.649C150.233 169.629 150.448 169.575 150.659 169.505C151.903 174.097 153.127 178.7 154.402 183.264C156.099 187.051 159.09 190.678 163.548 191.503C166.896 192.111 170.462 190.686 172.398 188.046C174.787 184.732 174.846 180.93 174.639 177.128C174.083 174.461 173.626 171.766 173.215 169.064C172.543 165.363 171.475 161.356 170.658 157.662C169.747 154.004 168.761 149.943 167.748 146.331C167.545 145.653 167.158 145.185 166.692 144.887C169.786 144.728 172.879 144.569 175.972 144.407C179.448 143.88 182.702 142.765 185.721 140.806C190.425 137.856 192.693 131.677 189.53 126.687L189.534 126.691ZM61.4614 131.519C61.5044 131.534 61.4888 131.53 61.4457 131.515C61.4496 131.515 61.4575 131.515 61.4614 131.519ZM111.942 51.1277C112.579 48.4874 112.751 45.5993 113.764 43.1138C114.147 42.0491 114.816 40.698 115.442 40.3109C115.442 40.2838 115.453 40.3186 115.469 40.2838C115.903 40.2412 116.337 40.1521 116.752 40.1986C116.81 40.1986 116.881 40.187 116.935 40.2141C116.951 40.2179 116.982 40.2063 116.994 40.2102C116.994 40.2334 117.025 40.1908 117.037 40.1831C117.28 40.2296 117.491 40.8451 117.581 41.1316C117.585 41.1239 117.592 41.2013 117.596 41.0697L117.655 41.7665C118.081 43.5242 118.535 45.2779 119.039 47.0201C119.54 48.7739 120.083 50.5121 120.729 52.2233C120.819 52.4595 120.944 52.6802 121.088 52.8854C117.682 52.9628 114.257 53.0596 110.816 53.1757C111.32 52.5718 111.754 51.8362 111.946 51.1316L111.942 51.1277ZM78.7613 164.976C76.7162 170.055 73.6855 177.492 71.9454 182.765C70.9482 184.023 69.6069 185.301 68.2422 185.913C67.5304 186.234 66.8852 186.261 66.6545 186.16C66.5333 186.106 66.4981 186.063 66.4551 186.013C66.3338 185.951 66.3104 185.893 66.2752 185.874C66.064 185.723 65.9389 185.467 65.8255 185.096C65.5596 184.294 65.5713 182.73 65.7473 181.758C66.0132 180.694 66.7092 177.825 66.9752 176.726C69.1455 167.806 71.2024 158.855 73.0364 149.858C77.029 149.966 81.0216 149.974 85.0064 149.892C82.8752 154.906 80.7909 159.935 78.7574 164.983L78.7613 164.976ZM116.791 162.769C106.811 162.842 96.8356 163.024 86.8678 163.543C87.4935 161.755 88.1113 159.993 88.7174 158.282C89.7146 155.425 90.6844 152.556 91.6347 149.683C106.612 149.072 121.55 147.542 136.496 146.555C138.873 146.408 141.255 146.273 143.632 146.137C145.212 150.403 146.671 155.309 147.953 159.699C148.329 161.011 148.692 162.335 149.06 163.656C138.318 162.781 127.56 162.707 116.795 162.773L116.791 162.769ZM166.747 170.376C167.345 172.8 168.018 175.212 168.464 177.67C168.44 179.099 168.073 180.702 167.404 181.898C165.246 185.634 162.766 182.935 161.014 180.523C159.849 177.724 158.723 174.871 157.691 171.975C154.719 163.4 152.106 154.461 149.224 145.812C154.054 145.545 158.887 145.289 163.717 145.042C163.083 145.522 162.669 146.304 162.786 147.333C163.889 154.972 165.167 162.819 166.747 170.372V170.376Z" fill="white"/>
<path d="M75.3357 81.7509C82.1595 77.1478 93.7971 69.943 102.08 69.3313C106.408 68.9674 110.311 71.3561 110.843 75.8896C111.289 79.9972 109.517 83.6441 108.082 87.2213C106.717 90.814 105.466 94.8597 105.779 98.5027C105.892 99.2112 105.99 100.09 106.494 100.473C112.481 100.597 121.245 91.658 125.14 87.2871C132.292 79.4126 139.667 71.7819 147.996 65.0727C151.86 62.1304 156.838 66.6639 154.218 70.7173C148.188 79.5132 141.149 87.4497 133.848 95.1888C131.924 97.2097 129.871 99.2151 127.74 101.07C123.145 105.015 118.019 108.747 111.957 110.423C104.868 112.425 97.7428 109.618 96.1043 101.925C94.8608 95.5798 97.121 89.2809 99.7528 83.6441C100.793 81.418 102.298 79.1067 102.615 76.6793C102.619 76.66 102.635 76.6368 102.639 76.6638C102.725 76.7606 102.795 76.8923 102.936 77.0123C103.03 77.0704 103.108 77.1555 103.214 77.1671C103.225 77.1749 103.241 77.1671 103.245 77.1594C103.221 77.1555 103.217 77.1362 103.186 77.1207C102.029 76.7684 100.586 77.0316 99.1349 77.2794C96.8277 77.713 94.3915 78.4796 91.9865 79.3468C87.1571 81.0967 82.2964 83.2608 77.6116 85.5372C75.148 86.6793 73.1419 83.3499 75.3475 81.7509H75.3357Z" fill="white"/>
</g>
</g>
</g>
<defs>
<filter id="filter0_d_18_93" x="0" y="0" width="234" height="234" filterUnits="userSpaceOnUse" color-interpolation-filters="sRGB">
<feFlood flood-opacity="0" result="BackgroundImageFix"/>
<feColorMatrix in="SourceAlpha" type="matrix" values="0 0 0 0 0 0 0 0 0 0 0 0 0 0 0 0 0 0 127 0" result="hardAlpha"/>
<feOffset dy="4"/>
<feGaussianBlur stdDeviation="2"/>
<feColorMatrix type="matrix" values="0 0 0 0 0 0 0 0 0 0 0 0 0 0 0 0 0 0 0.25 0"/>
<feBlend mode="normal" in2="BackgroundImageFix" result="effect1_dropShadow_18_93"/>
<feBlend mode="normal" in="SourceGraphic" in2="effect1_dropShadow_18_93" result="shape"/>
</filter>
<clipPath id="clip0_18_93">
<rect width="226" height="226" fill="white" transform="translate(4)"/>
</clipPath>
<clipPath id="clip1_18_93">
<rect width="148" height="163" fill="white" transform="translate(43 31)"/>
</clipPath>
</defs>
</svg>
