<svg width="234" height="234" viewBox="0 0 234 234" fill="none" xmlns="http://www.w3.org/2000/svg">
<g filter="url(#filter0_d_2008_64)">
<circle cx="116.974" cy="112.974" r="112.974" fill="#E3A52D"/>
</g>
<path d="M75.2753 90.2373C77.026 92.5793 80.7794 92.0622 81.9136 89.4769L82.0021 89.2911L82.7378 87.8514C89.6894 73.8097 94.7745 58.832 101.75 44.8173C103.218 41.8265 105.752 39.4879 108.739 37.9908C112.942 36.1287 117.363 37.7745 117.962 42.543C118.013 43.0668 118.16 43.5636 118.136 44.0908C118.051 45.0539 118.303 46.0948 118.916 46.8585C120.122 48.4638 122.547 48.849 124.178 47.6831C126.392 46.2029 129.536 44.3983 132.009 46.0914C134.57 47.8014 137.349 44.2597 135.04 42.205C131.893 39.4913 127.608 39.8495 123.95 41.3095C123.276 38.5113 121.385 36.0206 118.899 34.4255C115.285 32.1883 110.939 32.8709 107.223 34.2362C102.475 35.7502 98.7391 39.4541 96.4469 43.7697C89.9857 55.6925 83.4803 67.6118 78.5008 80.1902C76.5287 74.5769 73.3748 69.0515 68.0274 67.0407C59.0493 64.1749 54.4376 74.2525 52.4212 81.1128C48.5759 93.9682 46.8559 107.348 46.9036 120.74C47.0977 132.295 50.8647 144.714 60.0642 152.386C63.024 154.528 66.3142 150.297 63.5315 148.002C60.5002 145.471 58.2659 142.061 56.5833 138.503C51.2087 127.016 52.7176 113.799 54.2332 101.582C55.5786 92.3427 57.6801 82.8836 61.6174 74.4856C62.1759 73.4346 62.646 72.6438 63.3851 72.0119C64.4069 71.39 65.5717 71.0555 66.774 71.3258C73.0614 73.2048 74.4238 81.3899 74.5056 87.1181C74.4851 88.2029 74.5124 89.2809 75.2719 90.2373H75.2753ZM80.5614 87.6317C80.541 87.5844 80.5069 87.3715 80.4797 87.2499C80.4728 87.2127 80.4626 87.1755 80.4524 87.1383C80.5001 87.2938 80.5376 87.456 80.558 87.6317H80.5614Z" fill="white"/>
<path d="M181.112 86.3677C178.269 84.6937 174.926 85.1499 171.743 85.7296C172.507 80.4367 172.752 73.9672 167.848 70.8388C163.912 68.6365 159.076 68.6949 155.065 70.4958C156.694 65.1377 153.872 58.7333 149.527 55.8587C144.422 52.7612 137.443 53.605 132.941 57.4813C132.051 58.3388 131.288 59.3096 130.634 60.3524C130.33 59.9373 130.003 59.5394 129.622 59.1758C126.009 55.6392 119.865 56.5791 116.423 59.6904C109.144 66.5647 106.69 76.4644 103.94 85.6405C102.658 90.1204 101.247 94.6141 100.47 99.2621C100.348 100.003 100.263 100.751 100.164 101.495C98.0644 96.83 95.822 89.9558 89.9775 89.599C83.3082 89.6985 81.1817 97.7356 79.1778 102.651C75.7768 112.839 74.4272 123.339 74.1035 134.001C73.2754 147.207 74.8294 161.158 82.1257 172.557C88.0793 182.042 97.2977 189.832 108.223 192.947C111.894 193.907 115.806 194.037 119.452 193.952C124.264 193.808 129.168 193.389 133.824 192.072C140.915 190.086 147.823 186.803 153.344 181.788C162.269 173.541 167.661 162.571 172.152 151.512C176.572 141.002 180.082 129.932 183.357 119.113C185.273 114.589 186.315 109.742 186.718 104.874C187.249 98.3119 186.983 90.6247 181.115 86.3608L181.112 86.3677ZM168.966 86.2236C168.85 86.2408 168.731 86.2613 168.615 86.2785C168.686 86.2442 168.816 86.227 168.966 86.2236ZM180.331 104.078C179.684 107.687 178.716 111.285 177.155 114.575C175.758 117.24 174.722 120.18 173.706 122.804C169.211 135.579 165.449 148.542 158.987 160.455C155.126 167.926 150.723 175.6 143.522 180.203C136.41 184.875 127.822 186.786 119.381 186.518C117.227 186.501 115.104 186.388 113.131 186.079C107.184 185.053 101.878 181.561 97.4135 177.51C86.5082 167.25 81.7099 152.064 80.3195 137.376C79.9991 134.141 79.9991 130.608 80.3093 127.387C80.8307 119.72 82.2518 111.868 84.8452 104.692C85.8096 101.876 87.7044 97.9689 89.8207 96.9913C89.5038 96.9398 89.9332 96.8575 90.5773 97.2863C91.2077 97.667 91.9575 98.2913 92.5913 99.0631C96.0027 103.176 97.1579 108.977 98.6847 114.029C98.7801 114.393 98.9266 115.076 99.0186 115.432C99.0732 115.614 98.9266 115.168 99.1481 115.865C100.607 119.384 105.538 118.074 105.374 114.41C105.65 109.676 106.335 104.984 107.017 100.298C107.641 95.9039 108.176 91.4411 109.253 87.0846C110.711 81.4521 117.568 58.6681 125.59 63.4225C127.771 64.0983 126.418 67.899 126.278 68.6468C125.041 76.684 123.736 84.7417 122.349 92.7583C121.296 98.7476 120.24 104.744 118.941 110.668C118.522 112.633 118.038 114.571 117.507 116.328C117.04 117.618 117.673 119.079 118.972 119.569C120.267 120.06 121.708 119.401 122.196 118.101C123.709 114.023 124.677 110.136 125.76 106.027C128.804 94.0995 131.472 82.1347 134.086 70.1081C134.253 69.182 134.999 65.1377 137.064 63.0589C138.08 62.0367 141.416 59.3611 145.731 60.9664C149.415 62.3385 150.492 65.1377 150.492 69.2952C150.492 69.2952 149.875 73.1302 149.66 73.7614C148.392 77.7268 147.452 81.7848 146.457 85.8223C144.725 92.9264 142.101 103.001 140.496 110.023L139.15 116.084C138.728 118.551 137.623 120.084 139.46 122.65C139.665 122.962 140.05 123.12 140.428 123.013C142.132 122.533 142.926 121.6 143.379 120.646C144.552 117.696 145.574 114.712 146.559 111.711C148.832 104.764 152.001 94.8713 153.269 87.5717C153.913 83.8601 155.341 78.1727 157.723 76.5708C160.058 74.9997 164.955 75.5314 165.987 78.6495C167.166 82.2067 165.814 87.9353 165.807 87.9868C165.759 88.0897 162.661 97.9277 162.661 97.9277C160.092 106.826 156.241 117.899 154.182 126.845C153.603 129.064 156.66 130.361 157.825 128.371C160.91 123.048 163.012 115.045 165.101 109.306C167.064 103.33 168.346 99.245 170.118 93.2111C171.15 91.1323 174.129 89.7568 176.317 90.093C176.62 90.1684 178.038 90.6144 178.266 90.779C181.759 93.9966 181.054 99.7767 180.324 104.082L180.331 104.078Z" fill="white"/>
<defs>
<filter id="filter0_d_2008_64" x="0" y="0" width="233.947" height="233.947" filterUnits="userSpaceOnUse" color-interpolation-filters="sRGB">
<feFlood flood-opacity="0" result="BackgroundImageFix"/>
<feColorMatrix in="SourceAlpha" type="matrix" values="0 0 0 0 0 0 0 0 0 0 0 0 0 0 0 0 0 0 127 0" result="hardAlpha"/>
<feOffset dy="4"/>
<feGaussianBlur stdDeviation="2"/>
<feComposite in2="hardAlpha" operator="out"/>
<feColorMatrix type="matrix" values="0 0 0 0 0 0 0 0 0 0 0 0 0 0 0 0 0 0 0.25 0"/>
<feBlend mode="normal" in2="BackgroundImageFix" result="effect1_dropShadow_2008_64"/>
<feBlend mode="normal" in="SourceGraphic" in2="effect1_dropShadow_2008_64" result="shape"/>
</filter>
</defs>
</svg>
