<svg width="236" height="236" viewBox="0 0 236 236" fill="none" xmlns="http://www.w3.org/2000/svg">
<g filter="url(#filter0_d_2008_80)">
<circle cx="117.955" cy="113.955" r="113.955" fill="#8D9438"/>
</g>
<g clip-path="url(#clip0_2008_80)">
<path d="M51.3227 88.2477C73.1939 66.2759 105.073 56.5539 134.654 62.9214C149.798 66.0365 164.129 73.3296 176.108 83.5175C181.113 87.8168 185.776 92.5501 189.792 97.8994C190.599 98.975 190.429 100.536 189.412 101.388C188.461 102.183 187.107 102.077 186.275 101.184C177.714 92.1192 167.598 84.6219 156.682 79.1257C140.389 70.9582 121.958 67.7154 104.061 70.1411C92.1048 71.6795 80.4299 75.733 69.7631 81.6536C64.3769 84.6187 59.2148 88.0913 54.3854 92.0043C52.0652 93.8268 49.2328 90.4851 51.3163 88.254L51.3227 88.2477Z" fill="white"/>
<path d="M47.0951 112.543C65.7628 94.7364 90.4119 82.9239 115.861 82.9143C140.958 83.0452 169.301 93.597 184.041 116.175L185.066 117.937C183.715 126.392 179.34 133.133 174.255 139.203C163.028 152.187 148.137 161.861 131.786 165.545C107.691 170.354 85.0641 163.1 66.9437 145.868C62.0311 141.205 57.5474 136.168 53.8446 130.334C53.131 129.185 53.4318 127.64 54.5199 126.887C55.4832 126.216 56.741 126.395 57.509 127.238C61.8711 131.776 66.598 136.101 71.5042 140.004C84.4592 150.221 100.583 159.26 116.984 160.115C136.663 161.083 155.802 149.538 168.101 133.694C170.811 130.065 173.144 126.229 174.559 121.962C174.968 120.628 175.263 119.313 175.385 118.097C175.385 118.097 176.079 121.572 176.076 121.563C162.279 99.0388 131.46 88.586 106.926 90.6063C98.0351 91.3309 89.295 93.4629 80.958 96.8781C69.8176 101.426 59.3908 108.091 50.177 116.28C47.8248 118.278 44.8676 114.796 47.0983 112.54L47.0951 112.543Z" fill="white"/>
<path d="M115.832 111.984C111.774 115.977 110.475 122.332 114.533 126.724C115.771 128.119 117.426 129.271 119.538 130.187C120.39 130.487 120.844 131.492 120.498 132.373C120.31 132.855 119.922 133.197 119.481 133.327C115.199 134.62 109.995 132.386 107.39 128.396C102.471 121.279 105.934 110.389 113.8 107.905C116.14 107.203 117.666 110.357 115.832 111.978V111.984Z" fill="white"/>
<path d="M136.359 109.881C129.975 101.12 118.306 97.4813 108.91 102.811C102.24 106.412 97.6062 113.682 97.9391 121.569C98.1663 129.963 104.055 137.41 111.365 140.368C120.281 144.128 129.946 139.379 135.908 132.054C139.374 127.889 141.445 123.072 142.987 117.688C143.343 116.316 144.709 115.518 145.999 115.942C146.933 116.245 147.564 117.104 147.669 118.068C148.028 121.41 147.705 124.876 146.767 128.208C144.933 134.974 140.363 140.592 134.993 144.597C128.166 149.832 119.007 152.178 110.75 149.525C99.3056 146.085 90.1846 134.48 90.1974 121.697C90.0342 110.842 96.6749 100.711 105.876 96.2461C113.726 92.1862 123.363 92.6969 130.807 97.3983C134.606 99.7538 137.88 103.143 140.216 107.04C141.746 109.757 138.225 112.313 136.366 109.878L136.359 109.881Z" fill="white"/>
</g>
<defs>
<filter id="filter0_d_2008_80" x="0" y="0" width="235.909" height="235.909" filterUnits="userSpaceOnUse" color-interpolation-filters="sRGB">
<feFlood flood-opacity="0" result="BackgroundImageFix"/>
<feColorMatrix in="SourceAlpha" type="matrix" values="0 0 0 0 0 0 0 0 0 0 0 0 0 0 0 0 0 0 127 0" result="hardAlpha"/>
<feOffset dy="4"/>
<feGaussianBlur stdDeviation="2"/>
<feComposite in2="hardAlpha" operator="out"/>
<feColorMatrix type="matrix" values="0 0 0 0 0 0 0 0 0 0 0 0 0 0 0 0 0 0 0.25 0"/>
<feBlend mode="normal" in2="BackgroundImageFix" result="effect1_dropShadow_2008_80"/>
<feBlend mode="normal" in="SourceGraphic" in2="effect1_dropShadow_2008_80" result="shape"/>
</filter>
<clipPath id="clip0_2008_80">
<rect width="144" height="106" fill="white" transform="translate(46.3046 61)"/>
</clipPath>
</defs>
</svg>
