<svg width="231" height="229" viewBox="0 0 231 229" fill="none" xmlns="http://www.w3.org/2000/svg">
<g filter="url(#filter0_d_2008_15)">
<ellipse cx="115.421" cy="110.11" rx="111.421" ry="110.11" fill="#66A3F4"/>
</g>
<g clip-path="url(#clip0_2008_15)">
<path d="M177.211 115.305C175.465 113.045 173.683 110.835 171.759 108.749C183.056 100.93 188.686 85.7304 186.319 71.888C184.785 62.2633 179.209 53.464 171.46 48.0099C163.583 42.4413 153.587 40.6525 144.406 43.0073C139.731 44.2571 135.301 45.9786 131.262 48.869C118.421 58.8979 110.097 77.9283 115.973 94.368C123.614 114.53 148.825 119.877 166.637 111.643C168.957 116.238 171.756 120.534 174.715 124.704C175.866 126.298 177.053 127.867 178.351 129.346C181.173 132.442 185.841 128.858 183.833 125.092C181.882 121.635 179.585 118.441 177.214 115.302L177.211 115.305ZM133.859 104.06C114.385 93.2327 119.067 66.1173 134.874 54.1007C142.28 48.8353 160.277 50.4793 168.312 53.9896C175.923 57.1091 180.234 64.5609 181.603 72.7471C182.945 80.876 180.937 89.6045 176.256 96.204C171.594 102.898 164.303 106.758 156.537 107.86C148.849 109.019 140.716 108.093 133.859 104.063V104.06Z" fill="white"/>
<path d="M52.6898 135.69C53.8568 135.787 55.1113 135.794 56.2716 135.811C67.4006 135.855 78.4624 135.312 89.5409 134.342L91.8145 132.55L92.3257 131.58C94.3235 128.049 96.8728 123.481 100.616 122.073C101.285 121.871 101.85 121.911 102.506 121.965C103.253 122.026 104.292 122.164 104.85 122.407C105.19 122.548 105.321 122.666 105.368 122.73C105.416 122.801 105.473 122.868 105.59 123.175C106.381 125.462 106.236 128.561 106.32 131.051C106.374 134.369 106.445 137.516 106.206 140.406C106.021 142.377 105.779 144.098 105.025 145.651C104.639 146.335 104.437 146.625 103.727 146.901C103.233 147.029 102.698 147.107 102.197 147.127C98.7899 147.349 96.3011 144.119 94.8784 141.1C94.7103 140.74 94.5118 140.285 94.3235 139.87C94.0376 139.24 93.3986 138.826 92.6957 138.887C91.7842 138.964 91.1015 139.8 91.1755 140.756C91.1923 141.154 91.273 141.828 91.3201 142.205C92.0331 147.855 95.81 153.329 101.568 154.127C105.298 154.821 108.997 153.588 111.305 150.364C115.192 144.809 115.041 137.283 115.189 131.031C115.189 127.049 115.266 123.104 113.622 119.28C111.688 114.753 107.154 113.011 102.701 113.193C99.8426 113.119 96.9166 114.237 94.7708 116.104C90.8661 119.553 88.7708 124.195 87.5869 129.161C76.1888 128.524 64.8008 128.514 53.4431 127.827C49.572 127.281 47.6886 122.946 46.8512 119.301C47.3287 112.715 47.8635 105.532 48.2301 98.9361C48.2974 97.8884 48.3613 96.8374 48.4218 95.7897C57.886 95.9211 67.9489 95.857 77.2651 95.7054C88.1217 95.4966 98.9614 95.3753 109.781 94.1929C112.667 93.8155 112.677 89.4967 109.781 89.1093C99.365 87.9707 88.9356 87.8157 78.4893 87.6203C79.3873 84.9623 79.9792 82.1898 80.3593 79.3937C80.6351 75.8699 81.1833 74.0777 84.8122 73.3198C85.1317 73.2557 85.4411 73.2153 85.7438 73.2153C92.6284 73.0166 99.5365 72.6729 106.387 71.8274C109.223 71.4164 109.233 67.1616 106.387 66.7439C100.495 66.0128 94.606 65.6692 88.6934 65.4469C88.4445 65.4368 85.4815 65.3492 85.3369 65.3458C81.3077 65.3829 77.1104 67.2323 74.8469 70.9043C73.3368 73.2894 72.9971 75.9676 72.9971 78.6997C72.8861 81.5969 72.6742 84.5278 72.385 87.4283L72.3749 87.5361C63.2437 87.4283 53.6315 87.3811 44.7491 87.5765L41.0496 87.6709C40.9453 91.1272 40.5316 94.9205 40.313 98.35C39.8119 105.121 39.2704 112.576 38.8803 119.317L38.8466 119.883L38.9307 120.328C40.2659 127.51 45.1225 135.137 52.6864 135.703L52.6898 135.69Z" fill="white"/>
<path d="M157.761 127.022C157.099 128.157 155.296 128.339 154.015 128.464C152.4 128.619 150.661 128.427 149.047 128.268C142.055 127.628 135.056 127.17 128.047 126.816L122.797 126.577C120.96 126.496 119.212 126.682 117.547 127.733C115.778 128.831 115.761 131.715 117.547 132.816C118.421 133.386 119.296 133.655 120.17 133.827C121.895 134.218 126.271 133.749 128.043 133.736C131.545 133.574 135.042 133.332 138.544 133.123C142.045 132.867 145.542 132.607 149.044 132.281C152.151 132.028 158.568 131.341 159.342 127.426C159.466 126.405 158.114 126.068 157.761 127.022Z" fill="white"/>
<path d="M157.485 139.426C157.331 137.256 154.371 137.317 154.247 139.426C154.247 139.426 152.831 171.726 152.743 173.73C152.696 173.801 152.649 173.868 152.589 173.939C149.757 177.786 145.415 179.659 140.834 179.272C137.188 179.036 133.552 178.868 129.937 178.719C107.464 177.773 84.9837 177.365 62.497 177.16C61.1921 177.153 56.877 177.133 55.6629 177.143C53.0194 176.799 49.5922 175.853 48.2099 173.457C47.6752 172.544 47.6651 171.241 47.618 170.18C47.4027 165.288 47.0967 159.874 46.8175 155.017C46.4173 148.279 45.9565 141.548 45.3276 134.824C45.257 134.066 44.6718 133.446 43.9251 133.392C43.0843 133.328 42.3579 133.999 42.304 134.881C41.8534 141.615 41.5709 148.343 41.3489 155.064C41.137 159.922 41.1034 165.302 40.952 170.183C40.8309 172.41 41.0126 174.69 41.9913 176.742C44.4229 181.906 49.9454 184.322 55.0474 185.056C56.5743 185.151 60.8154 185.275 62.3423 185.346C88.0309 186.239 114.738 186.72 140.504 187C141.914 187.01 143.387 186.946 144.796 186.707C150.473 185.764 155.632 182.001 158.457 176.762C158.599 176.503 158.928 175.822 159.07 175.512L159.039 174.791L157.489 139.422L157.485 139.426Z" fill="white"/>
</g>
<defs>
<filter id="filter0_d_2008_15" x="0" y="0" width="230.842" height="228.221" filterUnits="userSpaceOnUse" color-interpolation-filters="sRGB">
<feFlood flood-opacity="0" result="BackgroundImageFix"/>
<feColorMatrix in="SourceAlpha" type="matrix" values="0 0 0 0 0 0 0 0 0 0 0 0 0 0 0 0 0 0 127 0" result="hardAlpha"/>
<feOffset dy="4"/>
<feGaussianBlur stdDeviation="2"/>
<feComposite in2="hardAlpha" operator="out"/>
<feColorMatrix type="matrix" values="0 0 0 0 0 0 0 0 0 0 0 0 0 0 0 0 0 0 0.25 0"/>
<feBlend mode="normal" in2="BackgroundImageFix" result="effect1_dropShadow_2008_15"/>
<feBlend mode="normal" in="SourceGraphic" in2="effect1_dropShadow_2008_15" result="shape"/>
</filter>
<clipPath id="clip0_2008_15">
<rect width="148" height="145" fill="white" transform="translate(38.85 42)"/>
</clipPath>
</defs>
</svg>
