<svg width="234" height="231" viewBox="0 0 234 231" fill="none" xmlns="http://www.w3.org/2000/svg">
<g filter="url(#filter0_d_2008_35)">
<ellipse cx="116.946" cy="111.451" rx="112.946" ry="111.451" fill="#D21744"/>
</g>
<g clip-path="url(#clip0_2008_35)">
<path d="M130.892 62.3876C124.228 59.4436 116.999 62.5866 111.942 67.1339C107.185 63.0259 101.357 59.316 94.7507 61.246C85.7391 64.0022 81.503 72.6988 84.7855 81.279C86.5521 86.0516 89.2533 89.6527 92.1444 93.0472C93.7097 94.3614 95.256 95.6945 96.8364 96.9937C102.17 101.443 107.653 105.829 113.135 110.114L115.236 107.913C117.587 105.807 129.3 95.2927 131.401 93.4152C132.127 92.7618 133.498 91.5489 134.197 90.8993C136.937 88.1056 139.057 84.9964 140.219 81.1663C142.704 73.3484 137.962 65.8384 130.892 62.3913V62.3876ZM114.742 69.6873C114.708 69.6572 114.643 69.5821 114.605 69.5521C114.51 69.4582 114.389 69.3418 114.259 69.2254C114.457 69.3719 114.628 69.5296 114.742 69.6873ZM128.392 84.6698L128.138 84.9702L128.092 85.0227C128.092 85.0227 128.081 85.034 128.096 85.019C128.157 84.9589 128.111 85.004 128.115 85.004L128.066 85.0528L127.876 85.2443C124.806 88.3346 117.333 95.8597 112.713 100.512C109.282 97.249 105.821 94.016 102.319 90.8317C100.989 89.6114 99.6364 88.4135 98.2915 87.2081C95.4649 83.6033 91.2061 77.8056 93.5767 73.4385C96.1374 69.6572 101.604 68.3167 105.639 70.8551C107.003 71.6474 108.295 72.7138 109.241 73.9868C109.685 74.7716 110.977 75.4362 111.904 75.4512C112.683 75.5639 114.085 75.0119 114.571 74.4486C114.761 74.321 115.076 74.1257 115.27 73.9943C118.188 72.2069 121.82 70.3407 125.239 71.009C126.497 71.3583 127.458 71.6587 128.559 72.4848C133.506 75.6577 131.572 80.7383 128.388 84.6698H128.392Z" fill="white"/>
<path d="M178.378 123.928C182.075 119.167 178.906 110.711 176.452 106.464C169.875 95.0899 155.67 94.9585 155.07 94.9585C154.823 94.9585 130.505 95.2514 129.703 120.62L129.627 123.012L130.455 123.358C129.376 123.883 128.521 124.698 127.602 125.566C123.765 129.103 119.985 132.696 116.307 136.395C113.674 138.408 113.154 142.411 115.479 144.949C117.663 147.397 120.775 148.362 123.803 149.263C128.635 150.593 133.791 151.22 138.768 150.27C140.147 150.014 141.347 149.68 142.689 149.139C143.471 148.843 144.144 148.235 144.489 147.408C144.535 147.3 144.558 147.187 144.588 147.074C145.173 147.367 145.766 147.645 146.374 147.885C151.647 149.894 157.593 149.691 162.965 148.122C163.185 148.058 163.405 147.983 163.622 147.912C165.685 149.462 169.325 150.056 171.292 150.12C177.079 150.3 182.523 148.817 187.648 146.372C189.532 145.354 191.42 144.465 192.735 142.403C193.495 141.156 193.331 139.35 192.226 138.329C192.074 138.197 189.821 136.188 189.601 136.001C186.003 132.993 182.53 129.512 178.488 126.899C178.112 126.463 177.633 126.103 177.052 125.888C176.904 125.836 176.756 125.806 176.608 125.772C176.532 125.731 176.452 125.689 176.376 125.648C177.299 125.119 177.949 124.473 178.37 123.932L178.378 123.928ZM145.838 104.417C150.386 101.984 155.04 101.92 155.059 101.92C155.165 101.92 165.81 102.089 170.335 109.915C172.892 114.334 173.393 118.709 172.82 119.64C172.672 119.681 172.087 119.79 170.768 119.445C165.723 118.131 163.337 114.117 161.418 110.891C159.963 108.439 158.459 105.908 155.553 105.908C155.458 105.908 155.363 105.908 155.264 105.916C152.103 106.092 150.454 109.186 149.037 112.34C146.058 118.968 140.257 118.885 136.952 118.202C137.746 111.777 140.728 107.147 145.842 104.414L145.838 104.417ZM121.485 143.019C121.485 143.019 121.698 142.842 121.9 142.673C121.824 142.752 121.751 142.835 121.66 142.895L121.482 143.019H121.485ZM124.073 140.402C125.858 138.468 127.625 136.519 129.361 134.54C129.977 133.845 130.581 133.139 131.188 132.437C132.936 136.128 135.307 139.632 138.247 142.493C133.502 142.467 128.282 141.979 124.073 140.402ZM142.996 139.05C139.786 136.44 137.423 132.377 136.902 128.254C137.427 127.255 137.457 126.2 137.146 125.261C138.255 125.404 139.478 125.479 140.778 125.423C147.411 125.137 152.627 121.499 155.473 115.175C155.518 115.07 155.564 114.969 155.61 114.875C157.798 118.544 161.434 124.225 168.975 126.185C170.233 126.512 171.346 126.651 172.33 126.651C172.732 126.651 173.112 126.624 173.473 126.583C173.07 126.944 172.736 127.394 172.531 127.935C169.913 135.272 165.552 140.935 157.79 142.076C152.73 142.681 147.149 142.377 143 139.054L142.996 139.05ZM188.165 141.896C188.248 141.986 188.362 142.106 188.366 142.114C188.298 142.058 188.229 141.979 188.165 141.896ZM186.683 140.263C183.792 141.671 180.221 142.538 177.06 142.993C175.301 143.218 173.34 143.342 171.486 143.173C173.287 141.498 174.826 139.557 175.988 137.491C177.158 135.46 178.063 133.361 178.803 131.288C179.844 132.569 180.935 133.789 181.968 134.968C182.948 136.076 185.099 138.498 186.683 140.259V140.263Z" fill="white"/>
<path d="M62.4996 97.1439C55.5623 98.1127 49.1531 101.894 45.0044 107.485C40.0883 113.775 37.8506 125.768 43.7279 130.267C43.8837 130.977 44.0584 131.592 44.2522 132.249C46.9458 141.108 54.5175 149.286 64.3688 150.033C77.3239 150.829 93.1968 146.248 97.8204 132.933C98.9184 129.734 99.2299 126.44 98.9146 123.32C98.8538 122.738 98.5309 122.209 98.0332 121.874C98.2953 121.236 98.4435 120.541 98.4283 119.82C98.4777 119.122 98.6334 117.267 98.6942 116.546L98.7132 116.298L98.5688 115.637C97.4063 113.182 96.1944 110.771 94.6595 108.525C87.84 98.0526 74.182 95.6044 62.492 97.1439H62.4996ZM72.8105 140.296C70.2613 140.649 67.6056 140.815 65.0222 140.785C59.1525 140.563 54.4529 136.519 50.7791 131.987C51.1667 131.957 51.558 131.923 51.9683 131.866C56.0068 131.224 59.73 129.49 63.134 127.582C67.7766 124.916 72.0355 121.848 76.15 118.461C76.9782 117.763 77.0124 117.443 77.6696 117.053C78.1483 116.76 78.8512 116.914 79.3755 117.109L84.6335 120.695C86.3887 121.878 88.1211 123.087 89.8422 124.304L89.5534 124.101C90.1575 124.604 90.9173 125.002 91.7417 125.198C92.5928 125.419 93.4476 125.397 94.253 125.186C90.7654 134.735 83.4862 138.858 72.8067 140.296H72.8105ZM92.7713 119.437C92.9233 119.452 93.0639 119.52 93.1664 119.659C93.0411 119.588 92.9005 119.512 92.7713 119.437ZM83.0986 105.345C87.9502 107.47 91.5328 112.111 91.7721 117.458L91.6506 116.55C91.6924 117.042 91.7797 118.093 91.8481 118.923C88.558 117.102 84.4283 114.92 81.3738 113.204C78.2851 111.957 75.5079 112.513 73.217 114.721C71.0477 116.174 68.7796 117.537 66.4545 118.776C62.9099 120.646 50.7829 126.786 47.8158 124.36C47.5043 123.943 47.3371 123.298 47.2649 122.674C47.0902 120.909 47.3599 118.683 47.9108 116.91C50.0231 109.832 57.0326 104.834 64.327 103.929C70.5766 103.133 77.2555 102.791 83.1024 105.349L83.0986 105.345Z" fill="white"/>
</g>
<defs>
<filter id="filter0_d_2008_35" x="0" y="0" width="233.893" height="230.902" filterUnits="userSpaceOnUse" color-interpolation-filters="sRGB">
<feFlood flood-opacity="0" result="BackgroundImageFix"/>
<feColorMatrix in="SourceAlpha" type="matrix" values="0 0 0 0 0 0 0 0 0 0 0 0 0 0 0 0 0 0 127 0" result="hardAlpha"/>
<feOffset dy="4"/>
<feGaussianBlur stdDeviation="2"/>
<feComposite in2="hardAlpha" operator="out"/>
<feColorMatrix type="matrix" values="0 0 0 0 0 0 0 0 0 0 0 0 0 0 0 0 0 0 0.25 0"/>
<feBlend mode="normal" in2="BackgroundImageFix" result="effect1_dropShadow_2008_35"/>
<feBlend mode="normal" in="SourceGraphic" in2="effect1_dropShadow_2008_35" result="shape"/>
</filter>
<clipPath id="clip0_2008_35">
<rect width="153" height="90" fill="white" transform="translate(40.2137 60.7203)"/>
</clipPath>
</defs>
</svg>
