<svg width="234" height="234" viewBox="0 0 234 234" fill="none" xmlns="http://www.w3.org/2000/svg">
<g filter="url(#filter0_d_2008_59)">
<path d="M116.95 0C179.331 0 229.9 50.5696 229.9 112.95C229.9 175.331 179.331 225.9 116.95 225.9C54.5698 225.9 4.00011 175.331 4 112.95C4 50.5697 54.5697 0.000107234 116.95 0Z" fill="#D21744"/>
</g>
<path d="M113.869 41.0068C122.218 41.2523 129.38 44.9759 129.425 54.2939C129.496 61.3758 128.709 68.5071 128.772 75.5332C128.779 75.9008 128.795 76.2658 128.817 76.626C136.659 76.1689 152.951 75.0575 158.577 74.7119C166.848 73.6757 175.058 78.1422 178.843 85.5137C181.17 89.8386 182.049 94.3503 182.839 98.9502C183.886 105.296 184.402 111.711 184.762 118.079L184.766 118.086C185.174 125.755 184.999 133.455 184.639 141.116C184.569 142.108 184.335 143.146 184.109 144.097C180.331 158.922 168.674 167.323 153.786 168.639C137.46 169.698 119.275 168.673 103.807 162.939C103.57 162.85 103.188 162.693 102.965 162.597C97.3466 159.71 91.7758 156.741 86.0199 154.144C85.3558 153.861 84.12 153.26 83.4223 153.07C81.7673 152.61 80.8606 152.848 78.9906 153.319C77.4992 153.694 75.918 154.01 74.4154 154.318C73.4507 154.508 72.5145 154.626 71.5609 154.597C70.7149 157.071 68.1837 158.751 65.8979 159.595C63.5527 160.531 61.0065 160.824 58.5092 161.018C56.3384 161.11 54.1634 161.048 52.0297 160.795C49.5953 160.505 49.4394 157.057 51.8031 156.529C54.2298 156.032 56.6315 155.764 59.0248 155.263C60.4905 154.999 61.939 154.62 63.3676 154.211C64.4214 153.921 65.8023 153.315 66.5072 152.68C66.5107 152.68 66.526 152.684 66.5326 152.687C66.5292 152.698 66.5364 152.71 66.5473 152.721C66.562 152.732 66.5555 152.768 66.5736 152.787C66.5809 152.791 66.5852 152.836 66.5961 152.862C66.6256 152.933 66.6402 153.004 66.6771 153.089L66.5258 152.159L66.9926 152.167C66.5176 148.797 66.366 145.412 66.2807 142.02C66.0023 128.74 65.7016 114.853 65.1635 101.629C65.041 99.0765 64.9402 96.3972 64.391 93.9414C63.5337 90.646 61.2776 88.4011 57.8861 87.7842C55.1772 87.5055 52.4788 87.1898 49.7885 86.7402C47.3466 86.2981 47.4321 82.775 49.8852 82.4443C52.6049 82.11 55.3142 81.9131 58.0414 81.7607C58.646 81.7608 59.2997 81.7797 59.8969 81.8613C65.259 82.5043 69.6609 86.4024 71.2494 91.5371L71.3832 91.916C71.4351 92.1313 71.6133 92.8189 71.6654 93.0498C72.0439 94.5506 72.1551 95.8368 72.3109 97.293C73.3018 108.834 72.9193 120.364 72.6225 131.905C72.3924 137.404 72.4078 142.916 71.8178 148.385C73.6768 147.787 75.6666 147.4 77.559 146.969C80.0415 146.319 82.9774 146.348 85.4115 147.321C85.8715 147.5 86.3389 147.704 86.7729 147.935C92.8738 151.071 99.2426 153.664 105.537 156.369C108.876 157.406 113.215 158.417 116.978 159.16C128.824 161.471 141.104 162.616 153.213 162.073C164.94 161.363 174.864 154.693 176.568 142.599C176.649 141.99 176.708 141.406 176.708 140.815C176.712 140.744 176.702 141.015 176.702 140.941H176.69V140.845C176.334 135.044 175.529 124.592 175.102 118.688C174.675 112.587 174.156 106.526 173.228 100.525C172.593 96.7431 171.929 92.7375 170.125 89.5088C168.151 85.76 164.064 83.448 159.827 83.6855C154 83.9382 139.041 84.4104 133.229 84.6631C132.004 84.678 128.371 84.9338 127.209 84.8447C124.133 84.6104 121.435 82.1253 120.956 79.0713C120.537 76.0914 120.707 72.9655 120.8 70.0117C120.9 67.1686 121.198 59.7678 121.216 56.9736L121.235 54.8369L121.243 54.3018L121.235 53.9228C121.268 50.4308 118.428 49.4077 115.323 48.8838C114.737 48.765 114.083 48.7239 113.49 48.6533C113.371 48.6311 113.285 48.6244 113.063 48.7021C111.542 49.4118 109.897 51.7346 108.866 53.4512C105.607 58.887 102.946 65.0596 99.8402 70.7109C98.7642 72.7579 97.4758 74.7833 96.1215 76.626C90.6515 83.9309 83.8298 89.9168 76.393 95.1113C74.0847 96.5976 71.7177 93.3653 73.8998 91.6152C81.5556 85.3283 89.2863 77.7213 93.7914 68.8262C96.875 62.5061 99.2282 56.0776 102.664 49.8096C104.939 45.7038 108.469 40.7876 113.869 41.0068Z" fill="white"/>
<defs>
<filter id="filter0_d_2008_59" x="0" y="0" width="233.9" height="233.9" filterUnits="userSpaceOnUse" color-interpolation-filters="sRGB">
<feFlood flood-opacity="0" result="BackgroundImageFix"/>
<feColorMatrix in="SourceAlpha" type="matrix" values="0 0 0 0 0 0 0 0 0 0 0 0 0 0 0 0 0 0 127 0" result="hardAlpha"/>
<feOffset dy="4"/>
<feGaussianBlur stdDeviation="2"/>
<feComposite in2="hardAlpha" operator="out"/>
<feColorMatrix type="matrix" values="0 0 0 0 0 0 0 0 0 0 0 0 0 0 0 0 0 0 0.25 0"/>
<feBlend mode="normal" in2="BackgroundImageFix" result="effect1_dropShadow_2008_59"/>
<feBlend mode="normal" in="SourceGraphic" in2="effect1_dropShadow_2008_59" result="shape"/>
</filter>
</defs>
</svg>
